<svg width="449" height="364" viewBox="0 0 449 364" fill="none" xmlns="http://www.w3.org/2000/svg">
<path d="M106.507 0.358775C114.722 -0.797121 130.359 1.04383 138.238 2.9828C176.704 12.4488 211.523 37.5505 237.792 66.6019C244.84 74.3976 253.42 84.6755 258.883 93.517L258.831 228.499C289.122 197.645 319.594 166.97 350.248 136.472L377.666 108.905C382.343 104.178 388.662 97.4074 393.528 93.1195C397.75 92.7767 403.621 92.9564 407.994 92.9838C370.588 131.105 332.021 168.79 294.893 206.982C303.702 209.717 316.421 217.118 324.171 222.091C379.66 257.677 411.937 311.567 449.01 363.908L425.254 363.889C387.599 311.215 344.095 241.723 278.303 222.914L258.835 242.76L258.853 309.502L258.831 363.873C253.476 363.955 247.924 363.855 242.554 363.822C242.305 340.207 241.435 315.669 242.038 292.143C238.541 294.604 235.461 296.706 231.632 298.718C211.474 309.176 187.975 311.147 166.356 304.199C147.306 298.18 131.451 284.797 122.316 267.031C117.54 257.591 115.265 247.808 115.092 237.427C114.329 191.701 153.524 161.236 197.061 161.31C214.45 161.339 225.647 163.876 241.893 169.338L242.016 108.509C224.018 108.141 204.902 108.447 186.841 108.447L82.0976 108.454L82.0322 356.087C76.5034 350.984 70.8726 345.992 65.1445 341.112L65.0859 108.523C43.7836 108.079 21.4817 108.494 0.0507491 108.44C-0.0530165 103.333 0.0305627 98.0618 0.0546554 92.9398L73.2451 92.8119C67.2426 86.5131 63.0699 82.5083 56.374 77.0404C52.0511 56.3299 52.028 36.5097 66.4121 19.2484C76.6793 6.92775 90.8409 1.69668 106.507 0.358775ZM241.917 177.63C230.668 174.148 218.012 171.097 206.101 172.324C183.475 174.264 164.119 182.432 149.288 200.207C137.487 214.357 131.731 232.58 133.267 250.94C135.294 273.343 149.122 291.179 171.675 295.523C188.238 298.495 203.981 294.263 217.837 284.817C228.7 277.408 234.854 268.847 241.867 258.115C242.316 249.187 241.947 238.713 241.938 229.592L241.917 177.63ZM251.83 92.85C220.154 54.789 170.116 15.493 117.84 17.3959C111.693 17.8791 107.743 18.4441 101.866 20.2504C81.4085 26.5388 71.9118 45.8786 73.6113 66.3471C74.506 77.1183 77.1284 83.5335 81.8056 93.0092C123.601 92.4966 166.036 92.8986 207.894 92.9057C221.517 92.9112 238.462 93.3392 251.83 92.85Z" fill="#141313"/>
</svg>
